<svg width="194" height="121" viewBox="0 0 194 121" fill="none" xmlns="http://www.w3.org/2000/svg">
<g clip-path="url(#clip0_709_2)">
<path fill-rule="evenodd" clip-rule="evenodd" d="M27.7 103.5C22.2 103.5 17.7 101.9 14.1 98.7001L13.4 98.1001V102.2H0V38.5001H13.4V62.2001L14.1 61.6001C17.6 58.4001 22.2 56.8001 27.7 56.8001C39.8 56.7001 49 66.7001 49 80.1001C49 86.7001 46.8 92.8001 42.7 97.1001C38.7 101.2 33.4 103.5 27.7 103.5ZM24.7 68.0001C18.3 68.0001 13.3 73.3001 13.3 80.1001C13.3 86.9001 18.3 92.2001 24.7 92.2001C31.3 92.2001 35.9 87.2001 35.9 80.1001C35.9 73.0001 31.3 68.0001 24.7 68.0001ZM114 103.5C109.4 103.5 106 100.6 106 96.5001C106 94.7001 106.8 92.9001 108.2 91.6001C109.7 90.2001 111.7 89.5001 113.9 89.5001C118.3 89.5001 121.9 92.6001 121.9 96.5001C121.9 98.4001 121.1 100.2 119.6 101.5C118.2 102.8 116.2 103.5 114 103.5ZM143.6 69.9001C143.5 67.3001 143.4 64.6001 143.4 61.9001C143.4 52.3001 143.7 42.2001 145.8 32.8001V32.7001C145.9 32.4001 145.9 32.0001 146 31.6001C146.1 31.0001 146.2 30.4001 146.4 29.9001L146.5 29.4001C146.8 28.1001 147 26.8001 147.4 25.6001C148.8 24.7001 149.9 23.1001 150.3 21.4001C150.7 19.7001 150.4 18.0001 149.4 16.6001L149.3 16.5001C147.7 14.4001 145.6 13.2001 143.2 13.2001C142.8 13.2001 142.4 13.2001 142 13.3001C139.4 13.6001 137.9 15.4001 137.1 16.4001L136.7 16.9001C135.5 18.7001 134.9 20.8001 134.5 22.4001L134.4 22.8001C133.4 26.1001 132.7 29.4001 132.2 32.8001C131 40.1001 130.2 47.8001 130 55.9001C129.9 61.5001 129.9 67.4001 130.5 73.4001C130.9 78.5001 131.7 85.1001 134.1 91.1001C135.1 93.9001 136.2 96.2001 137.7 98.1001C138.7 99.5001 140.2 101.3 142.5 102.4H142.6C144.3 103.2 146 103.6 147.6 103.6C152.5 103.6 157.4 100.2 162.1 93.4001C165.4 88.7001 168.1 83.5001 170.1 79.1001C170.2 81.7001 170.4 84.3001 170.6 87.3001C171.9 102.2 173.6 107.3 173.6 107.5C174.5 110 175.7 112.8 178 114.8L178.1 114.9C179.4 115.9 181 116.5 182.6 116.5C184.3 116.5 186 115.8 187.3 114.6C188.7 113.2 189.3 111.8 189.3 110.1C189.3 108.9 188.9 107.7 188.3 106.4L186.6 103.4H186.5C186.3 103.2 185.1 101.2 184.3 90.0001C184.2 88.9001 184.1 87.7001 184 86.6001C183.8 84.2001 183.6 81.7001 183.5 79.3001C183.3 73.0001 183.3 66.3001 183.6 57.6001C183.7 55.3001 183.8 52.8001 184 50.5001C184.1 49.3001 184.2 48.1001 184.2 47.0001L184.9 41.6001C185.1 40.9001 185.4 40.2001 185.6 39.4001C185.9 38.5001 186.2 37.5001 186.5 36.6001C187.4 34.0001 188.7 30.0001 189.8 26.0001C190.1 25.0001 190.4 24.1001 190.8 23.1001V23.0001C191.3 21.5001 191.9 19.9001 192.3 18.2001C193.5 14.5001 194.6 9.7001 192.9 5.2001C192.2 3.1001 190.5 1.5001 188.5 0.900097C187.9 0.700097 187.3 0.600098 186.7 0.600098C185.1 0.600098 183.4 1.2001 182.1 2.3001C178.9 5.0001 177.6 8.7001 176.9 11.7001C176.5 13.1001 176.3 14.5001 176 15.7001C175.8 16.4001 175.6 17.2001 175.4 18.0001C175.2 18.6001 175 19.3001 174.9 19.9001C173.5 25.5001 172.5 31.6001 171.5 38.5001C171.3 39.2001 171 39.9001 170.7 40.7001L170.4 41.6001C169.3 44.6001 168.2 47.7001 167 50.6001L166.9 51.0001C166.1 53.1001 165.3 55.1001 164.5 57.2001C160.7 67.5001 157.3 75.0001 153.4 81.6001L153.3 81.7001C152.6 83.1001 151.7 84.4001 150.8 85.7001C149.3 87.8001 148.2 88.7001 147.7 89.1001C147.9 89.2001 143.9 83.9001 143.6 69.9001ZM76.3 104.3L58 61.5001H72.3L83.1 88.2001L94.6 61.5001H108.9L83.6 120.5H69.2L76.3 104.3Z" fill="white"/>
</g>
<defs>
<clipPath id="clip0_709_2">
<rect width="194" height="121" fill="white"/>
</clipPath>
</defs>
</svg>
