<?xml version="1.0" encoding="utf-8"?>
<!-- Generator: Adobe Illustrator 24.0.3, SVG Export Plug-In . SVG Version: 6.00 Build 0)  -->
<svg version="1.1" id="Layer_1" xmlns="http://www.w3.org/2000/svg" xmlns:xlink="http://www.w3.org/1999/xlink" x="0px" y="0px"
	 viewBox="0 0 194 121" style="enable-background:new 0 0 194 121;" xml:space="preserve">
<style type="text/css">
	.st0{filter:url(#Adobe_OpacityMaskFilter);}
	.st1{fill-rule:evenodd;clip-rule:evenodd;fill:#FFFFFF;}
	.st2{mask:url(#b_1_);}
	.st3{fill-rule:evenodd;clip-rule:evenodd;fill:#00BCF1;}
</style>
<g transform="translate(-27 -17)">
	<defs>
		<filter id="Adobe_OpacityMaskFilter" filterUnits="userSpaceOnUse" x="27" y="17.5" width="194" height="120">
			<feColorMatrix  type="matrix" values="1 0 0 0 0  0 1 0 0 0  0 0 1 0 0  0 0 0 1 0"/>
		</filter>
	</defs>
	<mask maskUnits="userSpaceOnUse" x="27" y="17.5" width="194" height="120" id="b_1_">
		<g class="st0">
			<path id="a_1_" class="st1" d="M0,0h237v153H0V0z"/>
		</g>
	</mask>
	<g class="st2">
		<path class="st3" d="M54.7,120.5c-5.5,0-10-1.6-13.6-4.8l-0.7-0.6v4.1l-13.4,0l0-63.7l13.4,0l0,23.7l0.7-0.6
			c3.5-3.2,8.1-4.8,13.6-4.8C66.8,73.7,76,83.7,76,97.1c0,6.6-2.2,12.7-6.3,17C65.7,118.2,60.4,120.5,54.7,120.5L54.7,120.5z
			 M51.7,85c-6.4,0-11.4,5.3-11.4,12.1c0,6.8,5,12.1,11.4,12.1c6.6,0,11.2-5,11.2-12.1C62.9,90,58.3,85,51.7,85z M141,120.5
			c-4.6,0-8-2.9-8-7c0-1.8,0.8-3.6,2.2-4.9c1.5-1.4,3.5-2.1,5.7-2.1c4.4,0,8,3.1,8,7c0,1.9-0.8,3.7-2.3,5
			C145.2,119.8,143.2,120.5,141,120.5L141,120.5z M170.6,86.9c-0.1-2.6-0.2-5.3-0.2-8c0-9.6,0.3-19.7,2.4-29.1l0-0.1
			c0.1-0.3,0.1-0.7,0.2-1.1c0.1-0.6,0.2-1.2,0.4-1.7l0.1-0.5c0.3-1.3,0.5-2.6,0.9-3.8c0,0,0,0,0,0c1.4-0.9,2.5-2.5,2.9-4.2
			c0.4-1.7,0.1-3.4-0.9-4.8l-0.1-0.1c-1.6-2.1-3.7-3.3-6.1-3.3c-0.4,0-0.8,0-1.2,0.1c-2.6,0.3-4.1,2.1-4.9,3.1l-0.4,0.5
			c-1.2,1.8-1.8,3.9-2.2,5.5l-0.1,0.4c-1,3.3-1.7,6.6-2.2,10c-1.2,7.3-2,15-2.2,23.1c-0.1,5.6-0.1,11.5,0.5,17.5
			c0.4,5.1,1.2,11.7,3.6,17.7c1,2.8,2.1,5.1,3.6,7c1,1.4,2.5,3.2,4.8,4.3l0.1,0c1.7,0.8,3.4,1.2,5,1.2c4.9,0,9.8-3.4,14.5-10.2
			c3.3-4.7,6-9.9,8-14.3c0.1,2.6,0.3,5.2,0.5,8.2c1.3,14.9,3,20,3,20.2c0.9,2.5,2.1,5.3,4.4,7.3l0.1,0.1c1.3,1,2.9,1.6,4.5,1.6
			c1.7,0,3.4-0.7,4.7-1.9c1.4-1.4,2-2.8,2-4.5c0-1.2-0.4-2.4-1-3.7l-1.7-3l-0.1,0c-0.2-0.2-1.4-2.2-2.2-13.4
			c-0.1-1.1-0.2-2.3-0.3-3.4c-0.2-2.4-0.4-4.9-0.5-7.3c-0.2-6.3-0.2-13,0.1-21.7c0.1-2.3,0.2-4.8,0.4-7.1c0.1-1.2,0.2-2.4,0.2-3.5
			l0.7-5.4c0.2-0.7,0.5-1.4,0.7-2.2c0.3-0.9,0.6-1.9,0.9-2.8c0.9-2.6,2.2-6.6,3.3-10.6c0.3-1,0.6-1.9,1-2.9l0-0.1
			c0.5-1.5,1.1-3.1,1.5-4.8c1.2-3.7,2.3-8.5,0.6-13c-0.7-2.1-2.4-3.7-4.4-4.3c-0.6-0.2-1.2-0.3-1.8-0.3c-1.6,0-3.3,0.6-4.6,1.7
			c-3.2,2.7-4.5,6.4-5.2,9.4c-0.4,1.4-0.6,2.8-0.9,4c-0.2,0.7-0.4,1.5-0.6,2.3c-0.2,0.6-0.4,1.3-0.5,1.9c-1.4,5.6-2.4,11.7-3.4,18.6
			c-0.2,0.7-0.5,1.4-0.8,2.2l-0.3,0.9c-1.1,3-2.2,6.1-3.4,9l-0.1,0.4c-0.8,2.1-1.6,4.1-2.4,6.2c-3.8,10.3-7.2,17.8-11.1,24.4
			l-0.1,0.1c-0.7,1.4-1.6,2.7-2.5,4c-1.5,2.1-2.6,3-3.1,3.4C174.9,106.2,170.9,100.9,170.6,86.9 M103.3,121.3L85,78.5l14.3,0
			l10.8,26.7l11.5-26.7l14.3,0l-25.3,59l-14.4,0L103.3,121.3z"/>
	</g>
</g>
</svg>
