<?xml version="1.0" encoding="utf-8"?>
<!-- Generator: Adobe Illustrator 24.0.1, SVG Export Plug-In . SVG Version: 6.00 Build 0)  -->
<svg version="1.1" id="Layer_1" xmlns="http://www.w3.org/2000/svg" xmlns:xlink="http://www.w3.org/1999/xlink" x="0px" y="0px"
	 viewBox="0 0 551 200" style="enable-background:new 0 0 551 200;" xml:space="preserve">
<style type="text/css">
	.st0{fill-rule:evenodd;clip-rule:evenodd;fill:#E83D72;}
	.st1{fill-rule:evenodd;clip-rule:evenodd;fill:#4DB9DA;}
	.st2{fill-rule:evenodd;clip-rule:evenodd;fill:url(#SVGID_1_);}
</style>
<path class="st0" d="M77.3,169.6l39.3,30.4v-30.4h32.5c4,0,7.3-3.3,7.3-7.3V61.8c0-4-3.3-7.3-7.3-7.3h-32.7v74.9c0,4.8-3.6,9.7-8,11
	L8,168.7c-1.8,0.5-3.5,0.3-4.8-0.4c1.2,0.8,2.5,1.2,4,1.2H77.3L77.3,169.6z M10.1,54.5l-2,0.6c-4.4,1.3-8,6.2-8,11v-0.9
	c0-4,3.3-10.6,7.3-10.6H10.1z"/>
<path class="st1" d="M74.1,1L5.5,53.2C2.5,55.5,0,61.3,0,66l0,95.8c0,4.8,2.5,7.3,5.5,5l68.6-52.2c3-2.3,5.5-8.1,5.5-12.9V5.5
	C79.6,0.7,77.1-1.4,74.1,1z"/>
<linearGradient id="SVGID_1_" gradientUnits="userSpaceOnUse" x1="191.8087" y1="115.2843" x2="551" y2="115.2843">
	<stop  offset="0" style="stop-color:#E71E63"/>
	<stop  offset="1" style="stop-color:#4DB8DD"/>
</linearGradient>
<path class="st2" d="M252.4,120.4c3.7,4.3,5.5,9.6,5.5,15.8c0,4-0.8,7.6-2.3,10.7c-1.4,3.3-3.7,6.3-7,9c-6.2,5-14.4,7.5-24.7,7.5
	c-5.9,0-11.1-0.7-15.6-2.2c-4.8-1.5-8.9-3.2-12.4-5.3c-2.2-1.3-3.5-2.9-4-5c-0.5-2,0-4,1.4-5.8l1-1.2c1.3-1.7,3.3-2.9,6-3.6
	c2.6-0.5,5,0,7.2,1.2c1.1,0.5,2.3,1.1,3.6,1.7c1.3,0.6,2.7,1.2,4.2,1.7c2.3,0.8,5.3,1.2,8.9,1.2c2,0,3.9-0.2,5.9-0.7
	c1.7-0.5,3.1-1.2,4.1-1.9c1.1-0.9,1.9-1.8,2.4-2.7c0.5-1.4,0.8-2.9,0.8-4.5c0-1-0.1-2-0.2-3.1c-0.2-1-0.6-1.9-1.4-2.7
	c-0.5-0.5-1.5-1.2-2.8-2s-3.3-1.6-5.9-2.4h-0.2l-6.5-2c-3.8-1.3-7.2-2.6-10.2-4.1c-3-1.5-5.6-3.1-7.7-5.1c-5-4.3-7.5-10.3-7.5-18
	c0-4.2,0.9-7.9,2.6-11.1c1.5-3.2,3.9-5.9,7-8.2c3.1-2.2,6.6-3.8,10.4-4.9c3.4-0.9,7.1-1.4,11.2-1.4c5.2,0,10.1,0.7,14.6,2
	c4.2,1.3,7.6,2.7,10.2,4.2c2.2,1.1,3.6,2.6,4.1,4.6c0.6,2,0.3,3.9-0.9,5.7l-0.8,1.2c-1.3,1.9-3.3,3.2-5.9,4c-2.4,0.5-4.8,0.2-7.3-1
	c-1.1-0.5-2.2-1-3.3-1.4c-1.1-0.4-2.3-0.8-3.5-1.3c-1.8-0.6-4.3-1-7.3-1c-3.8,0-6.6,0.7-8.5,2.2c-0.2,0.2-0.7,0.7-1.3,1.5
	c-0.7,0.8-1,2.4-1,4.6c0,1.1,0.1,2,0.2,2.7c0.1,0.7,0.3,1.2,0.5,1.6c0.3,1,0.8,1.7,1.5,2.2c0.9,0.7,1.9,1.4,3.1,2
	c0.9,0.4,1.8,0.7,2.8,1.1c1,0.4,2.1,0.7,3.3,1.1h0.2l8,2.6C243.1,112.9,249,116.3,252.4,120.4L252.4,120.4z M321.4,149.9
	c1,1.3,1.5,2.7,1.5,4.4v0.5c0,2.2-0.9,4.1-2.8,5.6c-1.8,1.5-4,2.3-6.5,2.3h-1.8c-3.3,0-5.9-1.2-7.8-3.6L284.3,134v20.8
	c0,2.2-0.9,4.1-2.8,5.6c-1.8,1.5-4.1,2.3-6.7,2.3h-1.6c-2.6,0-4.8-0.8-6.7-2.3c-1.8-1.5-2.8-3.4-2.8-5.6V75c0-2.1,0.8-3.9,2.4-5.3
	c1.6-1.5,3.7-2.3,6.2-2.5l1.6-0.1c2.6-0.3,5,0.4,7.2,2c2.1,1.5,3.1,3.5,3.1,5.7v38.5l17.9-18c2-1.9,4.3-2.9,7.2-2.9h1.5
	c2.6,0,4.8,0.8,6.7,2.3c1.8,1.5,2.8,3.4,2.8,5.6v0.5c0,2.1-0.7,3.8-2.1,5.1l-17.6,17.6L321.4,149.9L321.4,149.9z M334.3,155.3
	c-4.2-4.4-6.3-10.8-6.3-19.3V99.7c0-2.2,0.9-4.1,2.8-5.6c1.8-1.5,4.1-2.3,6.7-2.3h1.6c2.6,0,4.8,0.8,6.7,2.3
	c1.8,1.5,2.8,3.4,2.8,5.6v37.4c0,3,0.9,5.2,2.8,6.6c1.8,1.4,3.9,2.1,6.3,2.1c2.3,0,4.6-0.5,6.7-1.5c2.1-1,3.4-2.5,3.8-4.3V99.7
	c0-2.2,0.9-4.1,2.8-5.6c1.8-1.5,4.1-2.3,6.7-2.3h1.8c2.6,0,4.8,0.8,6.7,2.3c1.8,1.5,2.7,3.4,2.6,5.6c0,6.1,0,11.4-0.1,16
	c-0.1,4.6-0.1,8.5-0.1,11.8c0,3.3,0,6.1,0,8.3c0,2.2,0,4,0,5.4c0,3.3-0.1,4.9-0.2,4.9v8.2c0,2.2-0.9,4.1-2.8,5.6
	c-1.8,1.5-4.1,2.3-6.7,2.3h-1.5c-2.8,0-5.1-0.9-6.8-2.6c-0.3,0.2-0.8,0.4-1.5,0.5l-0.2,0.1c-0.1,0.1-0.4,0.2-0.8,0.4
	c-3.7,1.3-7.8,1.9-12.2,1.9C346,162.7,338.8,160.3,334.3,155.3L334.3,155.3z M407.5,67.1c2.6,0,4.8,0.8,6.7,2.3
	c1.8,1.5,2.8,3.3,2.8,5.5v79.9c0,2.2-0.9,4.1-2.8,5.6c-1.8,1.5-4.1,2.3-6.7,2.3h-1.6c-2.6,0-4.8-0.8-6.7-2.3
	c-1.8-1.5-2.8-3.4-2.8-5.6V74.9c0-2.2,0.9-4,2.8-5.5c1.8-1.5,4.1-2.3,6.7-2.3H407.5L407.5,67.1z M438.4,163.1c-3.5,0-6.2-1-8.3-2.9
	c-0.8-0.6-1.5-1.5-2.1-2.7c-0.7-1.1-1-2.5-1-4.2c0-1.6,0.3-3,0.9-4.1c0.6-1.1,1.2-2,1.9-2.6c2.3-2.1,5.2-3.1,8.6-3.1
	c3.5,0,6.3,0.9,8.5,2.7c2.3,1.9,3.4,4.3,3.4,7.1c0,2.9-1.2,5.3-3.6,7.1c-0.9,0.6-2,1.2-3.3,1.8C442.2,162.9,440.5,163.1,438.4,163.1
	L438.4,163.1z M468.3,92.5c2.6,0,4.8,0.8,6.7,2.3c1.8,1.5,2.8,3.4,2.8,5.6v54.4c0,2.2-0.9,4.1-2.8,5.6c-1.8,1.5-4.1,2.3-6.7,2.3
	h-1.6c-2.6,0-4.8-0.8-6.7-2.3c-1.8-1.5-2.8-3.4-2.8-5.6v-54.4c0-2.2,0.9-4.1,2.8-5.6c1.8-1.5,4.1-2.3,6.7-2.3H468.3L468.3,92.5z
	 M467.5,88.5c-3.1,0-5.8-0.9-7.9-2.7c-2.1-1.8-3.2-4.1-3.2-6.8c0-2.7,1.1-5,3.2-6.8c2.1-1.8,4.7-2.7,7.9-2.7c3.1,0,5.8,0.9,7.9,2.7
	c2.1,1.8,3.2,4.1,3.2,6.8c0,2.7-1.1,5-3.2,6.8C473.3,87.6,470.7,88.5,467.5,88.5L467.5,88.5z M489.5,112.7c1.4-4.5,3.6-8.3,6.5-11.5
	c3.1-3.3,7-5.7,11.6-7.2c4.3-1.5,8.9-2.2,13.7-2.2c1.6,0,3.2,0.1,4.7,0.3c1.5,0.2,3,0.4,4.6,0.7V74.9c0-2.3,1-4.2,3.1-5.7
	c2-1.6,4.3-2.3,7.2-2l1.6,0.1c2.5,0.2,4.6,1,6.2,2.5c1.6,1.5,2.4,3.2,2.4,5.3v80.2c0,2.2-0.9,4.1-2.8,5.6c-1.8,1.5-4.1,2.3-6.7,2.3
	h-1.5c-1.6,0-2.9-0.2-3.8-0.7c-0.9-0.5-1.5-0.8-1.7-1c-0.2,0.1-0.7,0.2-1.3,0.3c-0.7,0.1-1.3,0.3-2,0.4c-0.7,0.1-1.2,0.3-1.8,0.4
	c-0.5,0.1-0.8,0.2-0.8,0.2c-2.5,0.5-5,0.7-7.5,0.7c-4.8,0-9.3-0.7-13.7-2.2c-4.6-1.5-8.4-4-11.6-7.2c-2.9-3.2-5.1-7-6.5-11.5
	c-1.3-4.2-2-9.2-2-14.9C487.5,122,488.2,117,489.5,112.7L489.5,112.7z M511.8,143.2c0.1,0.2,0.4,0.5,0.7,0.8
	c0.4,0.4,0.9,0.7,1.6,1.1s1.6,0.7,2.8,0.9c1.1,0.2,2.6,0.3,4.3,0.3c3.3,0,5.5-0.4,6.8-1.2c1.2-0.8,2.1-1.4,2.5-1.8V112
	c-0.4-0.5-1.3-1.1-2.5-1.8c-1.2-0.8-3.5-1.2-6.8-1.2c-3.5,0-5.8,0.4-7.1,1.3c-1.2,0.9-2,1.5-2.4,1.8c-0.9,1-1.7,2.7-2.5,5.1
	c-0.8,2.4-1.2,5.9-1.2,10.5c0,4.6,0.4,8.1,1.2,10.5C510.1,140.5,510.9,142.2,511.8,143.2z"/>
</svg>
